<svg version="1.1" xmlns="http://www.w3.org/2000/svg" xmlns:xlink="http://www.w3.org/1999/xlink" width="407.25536" height="395.23912" viewBox="413.95147,189.7937,407.25536,395.23912"><defs><clipPath id="clip-1"><rect x="524.70012" y="241.07216" transform="scale(0.78893,0.78729)" width="496.99942" height="487.01477" id="clip-1" fill="none"/></clipPath><linearGradient x1="1193.6578" y1="1057.75106" x2="1393.45" y2="1274.2834" gradientUnits="userSpaceOnUse" id="color-1"><stop offset="0" stop-color="#424b98"/><stop offset="1" stop-color="#000000"/></linearGradient><linearGradient x1="654.0077" y1="200.93342" x2="1029.83984" y2="963.13989" gradientUnits="userSpaceOnUse" id="color-2"><stop offset="0" stop-color="#424b98"/><stop offset="1" stop-color="#000000"/></linearGradient><linearGradient x1="855.45128" y1="-46.77914" x2="828.39626" y2="1210.85245" gradientUnits="userSpaceOnUse" id="color-3"><stop offset="0" stop-color="#cfcfcf"/><stop offset="1" stop-color="#424b98"/></linearGradient><linearGradient x1="504.33813" y1="307.78589" x2="797.40038" y2="673.80938" gradientUnits="userSpaceOnUse" id="color-4"><stop offset="0" stop-color="#0c908a"/><stop offset="1" stop-color="#424b98"/></linearGradient></defs><g fill="none" fill-rule="nonzero" stroke="none" stroke-width="1" stroke-linecap="butt" stroke-linejoin="miter" stroke-miterlimit="10" stroke-dasharray="" stroke-dashoffset="0" font-family="none" font-weight="none" font-size="none" text-anchor="none" style="mix-blend-mode: normal"><g id="Group 1 1 1 1" fill-opacity="0.12" fill="#000000"><path d="M717.83286,212.41588c1.98302,0.7368 3.94035,1.51131 5.872,2.32351c20.92669,8.74985 38.63837,21.1163 53.13507,37.09933c14.4967,15.86639 25.54459,35.0577 33.14365,57.57398c7.48216,22.39959 11.22325,47.19083 11.22325,74.37367v40.24929h-251.29558c1.75364,12.59978 5.43626,24.0329 11.04789,34.29939c5.61162,10.38316 12.74306,19.36633 21.39432,26.94952c8.65126,7.46653 18.5885,13.24143 29.81175,17.3247c11.22325,4.19993 23.44022,6.29988 36.65092,6.29988c9.3527,0 18.64695,-0.93332 27.88275,-2.79995c4.71443,-0.95283 9.33747,-2.11843 13.86912,-3.49685l30.47932,68.33314c-8.46317,3.2173 -17.45899,5.98811 -26.98746,8.31242c-15.7827,3.84993 -32.79292,5.77491 -51.0307,5.77491c-28.52576,0 -54.47953,-4.66659 -77.8613,-13.99976c-23.26487,-9.33316 -43.10931,-21.96383 -59.71038,-38.06355v50.31033h-96.3488v-374.14302h89.60616l3.5844,47.46291c0.55125,-0.59928 1.10686,-1.19463 1.66683,-1.78605c16.01652,-16.79969 34.95574,-29.86613 56.8177,-39.1993c21.97886,-9.33316 45.82827,-13.99976 71.54822,-13.99976c1.45497,0 2.90115,0.01292 4.3385,0.03877c11.0498,0.19867 21.57923,1.16098 31.5883,2.88694c5.3018,0.91424 10.45758,2.04274 15.46738,3.3855c4.83841,1.29683 9.54062,2.79351 14.10667,4.49005zM723.35413,498.05934c8.41745,-3.49993 16.25033,-7.87485 23.49868,-13.12476c7.36526,-5.24991 13.79525,-11.43313 19.28996,-18.54967l47.52345,51.27409c-5.96235,8.51652 -13.67834,16.79969 -23.14796,24.84956c-9.46962,8.04985 -20.6344,15.22473 -33.49438,21.52462c-1.77006,0.86712 -3.56779,1.71103 -5.39321,2.53174l-30.20987,-67.72904c0.64643,-0.25421 1.29087,-0.51305 1.93332,-0.77653zM708.88855,294.77569c-6.03356,-5.53188 -13.19988,-10.02754 -21.499,-13.48702c-9.2358,-3.73327 -19.93296,-5.5999 -32.09149,-5.5999c-10.63871,0 -20.45904,1.86663 -29.46103,5.5999c-8.88508,3.84993 -16.65951,9.27483 -23.32332,16.27471c-0.09236,0.09694 -0.18452,0.19412 -0.27646,0.29155c-6.65852,7.05566 -12.23644,15.41666 -16.73379,25.08301c-4.55945,9.79983 -8.00826,20.70796 -10.34644,32.72442h156.24868v-7.52486c-0.46764,-10.03316 -2.39663,-19.48299 -5.78699,-28.3495c-3.50726,-8.86651 -8.41745,-16.56637 -14.73051,-23.09959c-0.65213,-0.65077 -1.31868,-1.28836 -1.99967,-1.91272z" id="CompoundPath 1 1 1 1"/></g><g><g clip-path="url(#clip-1)" id="Group 2 1"><g id="Group 1 1 1 1" fill="url(#color-1)"><g id="Group 1 1 1 1"><path d="M702.67565,200.59679c1.98302,0.7368 3.94035,1.51131 5.872,2.32351c20.92669,8.74985 38.63837,21.1163 53.13507,37.09933c14.4967,15.86639 25.54459,35.0577 33.14365,57.57398c7.48216,22.39959 11.22325,47.19083 11.22325,74.37367v40.24929h-251.29558c1.75364,12.59978 5.43626,24.0329 11.04789,34.29939c5.61162,10.38316 12.74306,19.36633 21.39432,26.94952c8.65126,7.46653 18.5885,13.24143 29.81175,17.3247c11.22325,4.19993 23.44022,6.29988 36.65092,6.29988c9.3527,0 18.64695,-0.93332 27.88275,-2.79995c4.71443,-0.95283 9.33747,-2.11843 13.86912,-3.49685l30.47932,68.33314c-8.46317,3.2173 -17.45899,5.98811 -26.98746,8.31242c-15.7827,3.84993 -32.79292,5.77491 -51.0307,5.77491c-28.52576,0 -54.47953,-4.66659 -77.8613,-13.99976c-23.26487,-9.33316 -43.10931,-21.96383 -59.71038,-38.06355v50.31033h-96.3488v-374.14302h89.60616l3.5844,47.46291c0.55125,-0.59928 1.10686,-1.19463 1.66683,-1.78605c16.01652,-16.79969 34.95574,-29.86613 56.8177,-39.1993c21.97886,-9.33316 45.82827,-13.99976 71.54822,-13.99976c1.45497,0 2.90115,0.01292 4.3385,0.03877c11.0498,0.19867 21.57923,1.16098 31.5883,2.88694c5.3018,0.91424 10.45758,2.04274 15.46738,3.3855c4.83841,1.29683 9.54062,2.79351 14.10667,4.49005zM708.19692,486.24025c8.41745,-3.49993 16.25033,-7.87485 23.49868,-13.12476c7.36526,-5.24991 13.79525,-11.43313 19.28996,-18.54967l47.52345,51.27409c-5.96235,8.51652 -13.67834,16.79969 -23.14796,24.84956c-9.46962,8.04985 -20.6344,15.22473 -33.49438,21.52462c-1.77006,0.86712 -3.56779,1.71103 -5.39321,2.53174l-30.20987,-67.72904c0.64643,-0.25421 1.29087,-0.51305 1.93332,-0.77653zM693.73134,282.9566c-6.03356,-5.53188 -13.19988,-10.02754 -21.499,-13.48702c-9.2358,-3.73327 -19.93296,-5.5999 -32.09149,-5.5999c-10.63871,0 -20.45904,1.86663 -29.46103,5.5999c-8.88508,3.84993 -16.65951,9.27483 -23.32332,16.27471c-0.09236,0.09694 -0.18452,0.19412 -0.27646,0.29155c-6.65852,7.05566 -12.23644,15.41666 -16.73379,25.08301c-4.55945,9.79983 -8.00826,20.70796 -10.34644,32.72442h156.24868v-7.52486c-0.46764,-10.03316 -2.39663,-19.48299 -5.78699,-28.3495c-3.50726,-8.86651 -8.41745,-16.56637 -14.73051,-23.09959c-0.65213,-0.65077 -1.31868,-1.28836 -1.99967,-1.91272z" id="CompoundPath 1 1 1 1"/></g></g></g></g><g fill="url(#color-2)"><g id="Group 2 1"><g id="Group 1 1 1 1"><path d="M702.67565,200.59679c1.98302,0.7368 3.94035,1.51131 5.872,2.32351c20.92669,8.74985 38.63837,21.1163 53.13507,37.09933c14.4967,15.86639 25.54459,35.0577 33.14365,57.57398c7.48216,22.39959 11.22325,47.19083 11.22325,74.37367v40.24929h-251.29558c1.75364,12.59978 5.43626,24.0329 11.04789,34.29939c5.61162,10.38316 12.74306,19.36633 21.39432,26.94952c8.65126,7.46653 18.5885,13.24143 29.81175,17.3247c11.22325,4.19993 23.44022,6.29988 36.65092,6.29988c9.3527,0 18.64695,-0.93332 27.88275,-2.79995c4.71443,-0.95283 9.33747,-2.11843 13.86912,-3.49685l30.47932,68.33314c-8.46317,3.2173 -17.45899,5.98811 -26.98746,8.31242c-15.7827,3.84993 -32.79292,5.77491 -51.0307,5.77491c-28.52576,0 -54.47953,-4.66659 -77.8613,-13.99976c-23.26487,-9.33316 -43.10931,-21.96383 -59.71038,-38.06355v50.31033h-96.3488v-374.14302h89.60616l3.5844,47.46291c0.55125,-0.59928 1.10686,-1.19463 1.66683,-1.78605c16.01652,-16.79969 34.95574,-29.86613 56.8177,-39.1993c21.97886,-9.33316 45.82827,-13.99976 71.54822,-13.99976c1.45497,0 2.90115,0.01292 4.3385,0.03877c11.0498,0.19867 21.57923,1.16098 31.5883,2.88694c5.3018,0.91424 10.45758,2.04274 15.46738,3.3855c4.83841,1.29683 9.54062,2.79351 14.10667,4.49005zM708.19692,486.24025c8.41745,-3.49993 16.25033,-7.87485 23.49868,-13.12476c7.36526,-5.24991 13.79525,-11.43313 19.28996,-18.54967l47.52345,51.27409c-5.96235,8.51652 -13.67834,16.79969 -23.14796,24.84956c-9.46962,8.04985 -20.6344,15.22473 -33.49438,21.52462c-1.77006,0.86712 -3.56779,1.71103 -5.39321,2.53174l-30.20987,-67.72904c0.64643,-0.25421 1.29087,-0.51305 1.93332,-0.77653zM693.73134,282.9566c-6.03356,-5.53188 -13.19988,-10.02754 -21.499,-13.48702c-9.2358,-3.73327 -19.93296,-5.5999 -32.09149,-5.5999c-10.63871,0 -20.45904,1.86663 -29.46103,5.5999c-8.88508,3.84993 -16.65951,9.27483 -23.32332,16.27471c-0.09236,0.09694 -0.18452,0.19412 -0.27646,0.29155c-6.65852,7.05566 -12.23644,15.41666 -16.73379,25.08301c-4.55945,9.79983 -8.00826,20.70796 -10.34644,32.72442h156.24868v-7.52486c-0.46764,-10.03316 -2.39663,-19.48299 -5.78699,-28.3495c-3.50726,-8.86651 -8.41745,-16.56637 -14.73051,-23.09959c-0.65213,-0.65077 -1.31868,-1.28836 -1.99967,-1.91272z" id="CompoundPath 1 1 1 1"/></g></g></g><g fill="url(#color-3)"><g id="Group 2 1"><path d="M702.67565,200.59679c1.98302,0.7368 3.94035,1.51131 5.872,2.32351c20.92669,8.74985 38.63837,21.1163 53.13507,37.09933c14.4967,15.86639 25.54459,35.0577 33.14365,57.57398c7.48216,22.39959 11.22325,47.19083 11.22325,74.37367v40.24929h-251.29558c1.75364,12.59978 5.43626,24.0329 11.04789,34.29939c5.61162,10.38316 12.74306,19.36633 21.39432,26.94952c8.65126,7.46653 18.5885,13.24143 29.81175,17.3247c11.22325,4.19993 23.44022,6.29988 36.65092,6.29988c9.3527,0 18.64695,-0.93332 27.88275,-2.79995c4.71443,-0.95283 9.33747,-2.11843 13.86912,-3.49685l30.47932,68.33314c-8.46317,3.2173 -17.45899,5.98811 -26.98746,8.31242c-15.7827,3.84993 -32.79292,5.77491 -51.0307,5.77491c-28.52576,0 -54.47953,-4.66659 -77.8613,-13.99976c-23.26487,-9.33316 -43.10931,-21.96383 -59.71038,-38.06355v50.31033h-96.3488v-374.14302h89.60616l3.5844,47.46291c0.55125,-0.59928 1.10686,-1.19463 1.66683,-1.78605c16.01652,-16.79969 34.95574,-29.86613 56.8177,-39.1993c21.97886,-9.33316 45.82827,-13.99976 71.54822,-13.99976c1.45497,0 2.90115,0.01292 4.3385,0.03877c11.0498,0.19867 21.57923,1.16098 31.5883,2.88694c5.3018,0.91424 10.45758,2.04274 15.46738,3.3855c4.83841,1.29683 9.54062,2.79351 14.10667,4.49005zM708.19692,486.24025c8.41745,-3.49993 16.25033,-7.87485 23.49868,-13.12476c7.36526,-5.24991 13.79525,-11.43313 19.28996,-18.54967l47.52345,51.27409c-5.96235,8.51652 -13.67834,16.79969 -23.14796,24.84956c-9.46962,8.04985 -20.6344,15.22473 -33.49438,21.52462c-1.77006,0.86712 -3.56779,1.71103 -5.39321,2.53174l-30.20987,-67.72904c0.64643,-0.25421 1.29087,-0.51305 1.93332,-0.77653zM693.73134,282.9566c-6.03356,-5.53188 -13.19988,-10.02754 -21.499,-13.48702c-9.2358,-3.73327 -19.93296,-5.5999 -32.09149,-5.5999c-10.63871,0 -20.45904,1.86663 -29.46103,5.5999c-8.88508,3.84993 -16.65951,9.27483 -23.32332,16.27471c-0.09236,0.09694 -0.18452,0.19412 -0.27646,0.29155c-6.65852,7.05566 -12.23644,15.41666 -16.73379,25.08301c-4.55945,9.79983 -8.00826,20.70796 -10.34644,32.72442h156.24868v-7.52486c-0.46764,-10.03316 -2.39663,-19.48299 -5.78699,-28.3495c-3.50726,-8.86651 -8.41745,-16.56637 -14.73051,-23.09959c-0.65213,-0.65077 -1.31868,-1.28836 -1.99967,-1.91272z" id="CompoundPath 1 1 1 1"/></g></g><g fill="url(#color-4)"><path d="M702.67565,200.59679c1.98302,0.7368 3.94035,1.51131 5.872,2.32351c20.92669,8.74985 38.63837,21.1163 53.13507,37.09933c14.4967,15.86639 25.54459,35.0577 33.14365,57.57398c7.48216,22.39959 11.22325,47.19083 11.22325,74.37367v40.24929h-251.29558c1.75364,12.59978 5.43626,24.0329 11.04789,34.29939c5.61162,10.38316 12.74306,19.36633 21.39432,26.94952c8.65126,7.46653 18.5885,13.24143 29.81175,17.3247c11.22325,4.19993 23.44022,6.29988 36.65092,6.29988c9.3527,0 18.64695,-0.93332 27.88275,-2.79995c4.71443,-0.95283 9.33747,-2.11843 13.86912,-3.49685l30.47932,68.33314c-8.46317,3.2173 -17.45899,5.98811 -26.98746,8.31242c-15.7827,3.84993 -32.79292,5.77491 -51.0307,5.77491c-28.52576,0 -54.47953,-4.66659 -77.8613,-13.99976c-23.26487,-9.33316 -43.10931,-21.96383 -59.71038,-38.06355v50.31033h-96.3488v-374.14302h89.60616l3.5844,47.46291c0.55125,-0.59928 1.10686,-1.19463 1.66683,-1.78605c16.01652,-16.79969 34.95574,-29.86613 56.8177,-39.1993c21.97886,-9.33316 45.82827,-13.99976 71.54822,-13.99976c1.45497,0 2.90115,0.01292 4.3385,0.03877c11.0498,0.19867 21.57923,1.16098 31.5883,2.88694c5.3018,0.91424 10.45758,2.04274 15.46738,3.3855c4.83841,1.29683 9.54062,2.79351 14.10667,4.49005zM708.19692,486.24025c8.41745,-3.49993 16.25033,-7.87485 23.49868,-13.12476c7.36526,-5.24991 13.79525,-11.43313 19.28996,-18.54967l47.52345,51.27409c-5.96235,8.51652 -13.67834,16.79969 -23.14796,24.84956c-9.46962,8.04985 -20.6344,15.22473 -33.49438,21.52462c-1.77006,0.86712 -3.56779,1.71103 -5.39321,2.53174l-30.20987,-67.72904c0.64643,-0.25421 1.29087,-0.51305 1.93332,-0.77653zM693.73134,282.9566c-6.03356,-5.53188 -13.19988,-10.02754 -21.499,-13.48702c-9.2358,-3.73327 -19.93296,-5.5999 -32.09149,-5.5999c-10.63871,0 -20.45904,1.86663 -29.46103,5.5999c-8.88508,3.84993 -16.65951,9.27483 -23.32332,16.27471c-0.09236,0.09694 -0.18452,0.19412 -0.27646,0.29155c-6.65852,7.05566 -12.23644,15.41666 -16.73379,25.08301c-4.55945,9.79983 -8.00826,20.70796 -10.34644,32.72442h156.24868v-7.52486c-0.46764,-10.03316 -2.39663,-19.48299 -5.78699,-28.3495c-3.50726,-8.86651 -8.41745,-16.56637 -14.73051,-23.09959c-0.65213,-0.65077 -1.31868,-1.28836 -1.99967,-1.91272z" id="CompoundPath 1 1"/></g></g></svg>